<svg width="72" height="72" viewBox="0 0 72 72" fill="none" xmlns="http://www.w3.org/2000/svg">
<g filter="url(#filter0_d_1_25)">
<path d="M29.3116 6.32427C24.2768 6.32427 19.4482 8.32433 15.8881 11.8845C12.3279 15.4446 10.3279 20.2732 10.3279 25.3079C10.3279 30.3427 12.3279 35.1713 15.8881 38.7314C19.4482 42.2915 24.2768 44.2916 29.3116 44.2916C34.3463 44.2916 39.1749 42.2915 42.735 38.7314C46.2952 35.1713 48.2952 30.3427 48.2952 25.3079C48.2952 20.2732 46.2952 15.4446 42.735 11.8845C39.1749 8.32433 34.3463 6.32427 29.3116 6.32427ZM4 25.3079C4.00058 21.2798 4.96253 17.3099 6.80591 13.7283C8.64929 10.1467 11.3209 7.05681 14.5986 4.71535C17.8763 2.3739 21.6656 0.848536 25.6514 0.266044C29.6372 -0.316448 33.7044 0.0607504 37.5151 1.36629C41.3259 2.67183 44.7699 4.86801 47.5612 7.7723C50.3524 10.6766 52.4102 14.2051 53.5635 18.0646C54.7168 21.9242 54.9323 26.0032 54.1921 29.9627C53.4519 33.9223 51.7774 37.648 49.3077 40.8302L66.3518 57.8744C66.9282 58.4711 67.2471 59.2703 67.2399 60.0999C67.2327 60.9295 66.8999 61.7231 66.3133 62.3097C65.7267 62.8963 64.9331 63.229 64.1035 63.2363C63.274 63.2435 62.4747 62.9246 61.878 62.3482L44.8339 45.3041C41.0924 48.2089 36.6108 50.0055 31.8989 50.4897C27.187 50.9739 22.4337 50.1262 18.1797 48.043C13.9256 45.9598 10.3415 42.7247 7.83478 38.7056C5.32809 34.6865 3.99947 30.0447 4 25.3079Z" fill="#0D0D0D"/>
</g>
<defs>
<filter id="filter0_d_1_25" x="0" y="0" width="71.24" height="71.2364" filterUnits="userSpaceOnUse" color-interpolation-filters="sRGB">
<feFlood flood-opacity="0" result="BackgroundImageFix"/>
<feColorMatrix in="SourceAlpha" type="matrix" values="0 0 0 0 0 0 0 0 0 0 0 0 0 0 0 0 0 0 127 0" result="hardAlpha"/>
<feOffset dy="4"/>
<feGaussianBlur stdDeviation="2"/>
<feComposite in2="hardAlpha" operator="out"/>
<feColorMatrix type="matrix" values="0 0 0 0 0 0 0 0 0 0 0 0 0 0 0 0 0 0 0.25 0"/>
<feBlend mode="normal" in2="BackgroundImageFix" result="effect1_dropShadow_1_25"/>
<feBlend mode="normal" in="SourceGraphic" in2="effect1_dropShadow_1_25" result="shape"/>
</filter>
</defs>
</svg>
